<mxfile host="app.diagrams.net" agent="Mozilla/5.0 (Windows NT 10.0; Win64; x64) AppleWebKit/537.36 (KHTML, like Gecko) Chrome/132.0.0.0 Safari/537.36 Edg/132.0.0.0" version="27.0.6">
  <diagram name="Page-1" id="v_bWLvmWUgUF8t8omoqA">
    <mxGraphModel dx="2268" dy="1886" grid="1" gridSize="10" guides="1" tooltips="1" connect="1" arrows="1" fold="1" page="1" pageScale="1" pageWidth="850" pageHeight="1100" math="0" shadow="0">
      <root>
        <mxCell id="0" />
        <mxCell id="1" parent="0" />
        <mxCell id="Awra2Gltxtuhl-s47uvy-1" value="AIRPORT&amp;nbsp;" style="rounded=0;whiteSpace=wrap;html=1;" vertex="1" parent="1">
          <mxGeometry x="365" y="90" width="120" height="60" as="geometry" />
        </mxCell>
        <mxCell id="Awra2Gltxtuhl-s47uvy-2" value="AIRPLANE" style="rounded=0;whiteSpace=wrap;html=1;" vertex="1" parent="1">
          <mxGeometry x="410" y="495" width="120" height="60" as="geometry" />
        </mxCell>
        <mxCell id="Awra2Gltxtuhl-s47uvy-105" style="edgeStyle=orthogonalEdgeStyle;rounded=0;orthogonalLoop=1;jettySize=auto;html=1;exitX=0.75;exitY=1;exitDx=0;exitDy=0;entryX=0.5;entryY=0;entryDx=0;entryDy=0;endArrow=none;startFill=0;shape=link;" edge="1" parent="1" source="Awra2Gltxtuhl-s47uvy-3" target="Awra2Gltxtuhl-s47uvy-104">
          <mxGeometry relative="1" as="geometry" />
        </mxCell>
        <mxCell id="Awra2Gltxtuhl-s47uvy-111" value="1" style="edgeLabel;html=1;align=center;verticalAlign=middle;resizable=0;points=[];" vertex="1" connectable="0" parent="Awra2Gltxtuhl-s47uvy-105">
          <mxGeometry x="-0.1429" y="-1" relative="1" as="geometry">
            <mxPoint as="offset" />
          </mxGeometry>
        </mxCell>
        <mxCell id="Awra2Gltxtuhl-s47uvy-3" value="FLIGHT LEG&amp;nbsp;" style="rounded=0;whiteSpace=wrap;html=1;" vertex="1" parent="1">
          <mxGeometry x="90" y="190" width="120" height="60" as="geometry" />
        </mxCell>
        <mxCell id="Awra2Gltxtuhl-s47uvy-99" style="edgeStyle=orthogonalEdgeStyle;rounded=0;orthogonalLoop=1;jettySize=auto;html=1;exitX=1;exitY=0.5;exitDx=0;exitDy=0;entryX=0;entryY=0.5;entryDx=0;entryDy=0;endArrow=none;startFill=0;fillColor=#e1d5e7;strokeColor=#9673a6;" edge="1" parent="1" source="Awra2Gltxtuhl-s47uvy-4" target="Awra2Gltxtuhl-s47uvy-96">
          <mxGeometry relative="1" as="geometry" />
        </mxCell>
        <mxCell id="Awra2Gltxtuhl-s47uvy-116" value="1" style="edgeLabel;html=1;align=center;verticalAlign=middle;resizable=0;points=[];" vertex="1" connectable="0" parent="Awra2Gltxtuhl-s47uvy-99">
          <mxGeometry x="0.0857" y="-2" relative="1" as="geometry">
            <mxPoint as="offset" />
          </mxGeometry>
        </mxCell>
        <mxCell id="Awra2Gltxtuhl-s47uvy-4" value="AIRPLANE TYPE&amp;nbsp;" style="rounded=0;whiteSpace=wrap;html=1;" vertex="1" parent="1">
          <mxGeometry x="125" y="495" width="120" height="60" as="geometry" />
        </mxCell>
        <mxCell id="Awra2Gltxtuhl-s47uvy-73" style="edgeStyle=orthogonalEdgeStyle;rounded=0;orthogonalLoop=1;jettySize=auto;html=1;exitX=0.5;exitY=0;exitDx=0;exitDy=0;entryX=0.5;entryY=1;entryDx=0;entryDy=0;" edge="1" parent="1" source="Awra2Gltxtuhl-s47uvy-5" target="Awra2Gltxtuhl-s47uvy-72">
          <mxGeometry relative="1" as="geometry" />
        </mxCell>
        <mxCell id="Awra2Gltxtuhl-s47uvy-74" style="edgeStyle=orthogonalEdgeStyle;rounded=0;orthogonalLoop=1;jettySize=auto;html=1;exitX=0.75;exitY=0;exitDx=0;exitDy=0;entryX=0;entryY=1;entryDx=0;entryDy=0;" edge="1" parent="1" source="Awra2Gltxtuhl-s47uvy-5" target="Awra2Gltxtuhl-s47uvy-70">
          <mxGeometry relative="1" as="geometry" />
        </mxCell>
        <mxCell id="Awra2Gltxtuhl-s47uvy-75" style="edgeStyle=orthogonalEdgeStyle;rounded=0;orthogonalLoop=1;jettySize=auto;html=1;exitX=1;exitY=0;exitDx=0;exitDy=0;entryX=0;entryY=0.5;entryDx=0;entryDy=0;" edge="1" parent="1" source="Awra2Gltxtuhl-s47uvy-5" target="Awra2Gltxtuhl-s47uvy-69">
          <mxGeometry relative="1" as="geometry" />
        </mxCell>
        <mxCell id="Awra2Gltxtuhl-s47uvy-76" style="edgeStyle=orthogonalEdgeStyle;rounded=0;orthogonalLoop=1;jettySize=auto;html=1;exitX=1;exitY=0.5;exitDx=0;exitDy=0;entryX=0;entryY=0.5;entryDx=0;entryDy=0;" edge="1" parent="1" source="Awra2Gltxtuhl-s47uvy-5" target="Awra2Gltxtuhl-s47uvy-68">
          <mxGeometry relative="1" as="geometry" />
        </mxCell>
        <mxCell id="Awra2Gltxtuhl-s47uvy-77" style="edgeStyle=orthogonalEdgeStyle;rounded=0;orthogonalLoop=1;jettySize=auto;html=1;exitX=1;exitY=0.75;exitDx=0;exitDy=0;entryX=0.5;entryY=0;entryDx=0;entryDy=0;" edge="1" parent="1" source="Awra2Gltxtuhl-s47uvy-5" target="Awra2Gltxtuhl-s47uvy-67">
          <mxGeometry relative="1" as="geometry" />
        </mxCell>
        <mxCell id="Awra2Gltxtuhl-s47uvy-5" value="FLIGHT" style="rounded=0;whiteSpace=wrap;html=1;" vertex="1" parent="1">
          <mxGeometry x="580" y="220" width="120" height="60" as="geometry" />
        </mxCell>
        <mxCell id="Awra2Gltxtuhl-s47uvy-6" value="SEAT / RESERVATION" style="rounded=0;whiteSpace=wrap;html=1;" vertex="1" parent="1">
          <mxGeometry x="570" y="425" width="120" height="60" as="geometry" />
        </mxCell>
        <mxCell id="Awra2Gltxtuhl-s47uvy-7" value="LEG INSTANCE" style="rounded=0;whiteSpace=wrap;html=1;" vertex="1" parent="1">
          <mxGeometry x="30" y="370" width="120" height="60" as="geometry" />
        </mxCell>
        <mxCell id="Awra2Gltxtuhl-s47uvy-18" style="edgeStyle=orthogonalEdgeStyle;rounded=0;orthogonalLoop=1;jettySize=auto;html=1;exitX=0;exitY=1;exitDx=0;exitDy=0;entryX=0.75;entryY=0;entryDx=0;entryDy=0;endArrow=none;startFill=0;" edge="1" parent="1" source="Awra2Gltxtuhl-s47uvy-10" target="Awra2Gltxtuhl-s47uvy-1">
          <mxGeometry relative="1" as="geometry">
            <Array as="points">
              <mxPoint x="455" y="3" />
            </Array>
          </mxGeometry>
        </mxCell>
        <mxCell id="Awra2Gltxtuhl-s47uvy-10" value="state" style="ellipse;whiteSpace=wrap;html=1;" vertex="1" parent="1">
          <mxGeometry x="450" y="-40" width="95" height="50" as="geometry" />
        </mxCell>
        <mxCell id="Awra2Gltxtuhl-s47uvy-17" style="edgeStyle=orthogonalEdgeStyle;rounded=0;orthogonalLoop=1;jettySize=auto;html=1;exitX=1;exitY=1;exitDx=0;exitDy=0;entryX=0.25;entryY=0;entryDx=0;entryDy=0;endArrow=none;startFill=0;" edge="1" parent="1" source="Awra2Gltxtuhl-s47uvy-11" target="Awra2Gltxtuhl-s47uvy-1">
          <mxGeometry relative="1" as="geometry">
            <Array as="points">
              <mxPoint x="395" y="3" />
            </Array>
          </mxGeometry>
        </mxCell>
        <mxCell id="Awra2Gltxtuhl-s47uvy-11" value="city" style="ellipse;whiteSpace=wrap;html=1;" vertex="1" parent="1">
          <mxGeometry x="310" y="-40" width="95" height="50" as="geometry" />
        </mxCell>
        <mxCell id="Awra2Gltxtuhl-s47uvy-14" style="edgeStyle=orthogonalEdgeStyle;rounded=0;orthogonalLoop=1;jettySize=auto;html=1;exitX=0.5;exitY=1;exitDx=0;exitDy=0;entryX=0;entryY=0;entryDx=0;entryDy=0;endArrow=none;startFill=0;" edge="1" parent="1" source="Awra2Gltxtuhl-s47uvy-12" target="Awra2Gltxtuhl-s47uvy-1">
          <mxGeometry relative="1" as="geometry" />
        </mxCell>
        <mxCell id="Awra2Gltxtuhl-s47uvy-12" value="&amp;nbsp;airport_code" style="ellipse;whiteSpace=wrap;html=1;fontStyle=4" vertex="1" parent="1">
          <mxGeometry x="270" y="20" width="95" height="50" as="geometry" />
        </mxCell>
        <mxCell id="Awra2Gltxtuhl-s47uvy-19" style="edgeStyle=orthogonalEdgeStyle;rounded=0;orthogonalLoop=1;jettySize=auto;html=1;exitX=0.5;exitY=1;exitDx=0;exitDy=0;entryX=1;entryY=0;entryDx=0;entryDy=0;endArrow=none;startFill=0;" edge="1" parent="1" source="Awra2Gltxtuhl-s47uvy-13" target="Awra2Gltxtuhl-s47uvy-1">
          <mxGeometry relative="1" as="geometry" />
        </mxCell>
        <mxCell id="Awra2Gltxtuhl-s47uvy-13" value="name" style="ellipse;whiteSpace=wrap;html=1;" vertex="1" parent="1">
          <mxGeometry x="485" y="20" width="95" height="50" as="geometry" />
        </mxCell>
        <mxCell id="Awra2Gltxtuhl-s47uvy-26" style="edgeStyle=orthogonalEdgeStyle;rounded=0;orthogonalLoop=1;jettySize=auto;html=1;entryX=0;entryY=0.5;entryDx=0;entryDy=0;endArrow=none;startFill=0;" edge="1" parent="1" source="Awra2Gltxtuhl-s47uvy-20" target="Awra2Gltxtuhl-s47uvy-3">
          <mxGeometry relative="1" as="geometry" />
        </mxCell>
        <mxCell id="Awra2Gltxtuhl-s47uvy-20" value="scheduled_arr_time" style="ellipse;whiteSpace=wrap;html=1;" vertex="1" parent="1">
          <mxGeometry x="-50" y="195" width="115" height="50" as="geometry" />
        </mxCell>
        <mxCell id="Awra2Gltxtuhl-s47uvy-25" style="edgeStyle=orthogonalEdgeStyle;rounded=0;orthogonalLoop=1;jettySize=auto;html=1;entryX=0;entryY=0;entryDx=0;entryDy=0;endArrow=none;startFill=0;" edge="1" parent="1" source="Awra2Gltxtuhl-s47uvy-21" target="Awra2Gltxtuhl-s47uvy-3">
          <mxGeometry relative="1" as="geometry" />
        </mxCell>
        <mxCell id="Awra2Gltxtuhl-s47uvy-21" value="&amp;nbsp;scheduled_dep_time" style="ellipse;whiteSpace=wrap;html=1;" vertex="1" parent="1">
          <mxGeometry x="-50" y="130" width="115" height="50" as="geometry" />
        </mxCell>
        <mxCell id="Awra2Gltxtuhl-s47uvy-24" style="edgeStyle=orthogonalEdgeStyle;rounded=0;orthogonalLoop=1;jettySize=auto;html=1;exitX=0.5;exitY=1;exitDx=0;exitDy=0;entryX=0.25;entryY=0;entryDx=0;entryDy=0;endArrow=none;startFill=0;" edge="1" parent="1" source="Awra2Gltxtuhl-s47uvy-22" target="Awra2Gltxtuhl-s47uvy-3">
          <mxGeometry relative="1" as="geometry" />
        </mxCell>
        <mxCell id="Awra2Gltxtuhl-s47uvy-22" value="leg_no" style="ellipse;whiteSpace=wrap;html=1;fontStyle=4" vertex="1" parent="1">
          <mxGeometry x="73" y="90" width="95" height="50" as="geometry" />
        </mxCell>
        <mxCell id="Awra2Gltxtuhl-s47uvy-40" style="edgeStyle=orthogonalEdgeStyle;rounded=0;orthogonalLoop=1;jettySize=auto;html=1;entryX=0;entryY=0.5;entryDx=0;entryDy=0;endArrow=none;startFill=0;" edge="1" parent="1" source="Awra2Gltxtuhl-s47uvy-27" target="Awra2Gltxtuhl-s47uvy-7">
          <mxGeometry relative="1" as="geometry" />
        </mxCell>
        <mxCell id="Awra2Gltxtuhl-s47uvy-27" value="actual_arr_time" style="ellipse;whiteSpace=wrap;html=1;" vertex="1" parent="1">
          <mxGeometry x="-145" y="375" width="95" height="50" as="geometry" />
        </mxCell>
        <mxCell id="Awra2Gltxtuhl-s47uvy-41" style="edgeStyle=orthogonalEdgeStyle;rounded=0;orthogonalLoop=1;jettySize=auto;html=1;entryX=0;entryY=0.75;entryDx=0;entryDy=0;endArrow=none;startFill=0;" edge="1" parent="1" source="Awra2Gltxtuhl-s47uvy-28" target="Awra2Gltxtuhl-s47uvy-7">
          <mxGeometry relative="1" as="geometry" />
        </mxCell>
        <mxCell id="Awra2Gltxtuhl-s47uvy-28" value="available_seats" style="ellipse;whiteSpace=wrap;html=1;" vertex="1" parent="1">
          <mxGeometry x="-220" y="410" width="95" height="50" as="geometry" />
        </mxCell>
        <mxCell id="Awra2Gltxtuhl-s47uvy-39" style="edgeStyle=orthogonalEdgeStyle;rounded=0;orthogonalLoop=1;jettySize=auto;html=1;entryX=0;entryY=0.25;entryDx=0;entryDy=0;endArrow=none;startFill=0;" edge="1" parent="1" source="Awra2Gltxtuhl-s47uvy-29" target="Awra2Gltxtuhl-s47uvy-7">
          <mxGeometry relative="1" as="geometry" />
        </mxCell>
        <mxCell id="Awra2Gltxtuhl-s47uvy-29" value="actual_dep_time" style="ellipse;whiteSpace=wrap;html=1;" vertex="1" parent="1">
          <mxGeometry x="-200" y="320" width="95" height="50" as="geometry" />
        </mxCell>
        <mxCell id="Awra2Gltxtuhl-s47uvy-30" value="&lt;u&gt;leg_no&lt;/u&gt;" style="ellipse;whiteSpace=wrap;html=1;" vertex="1" parent="1">
          <mxGeometry x="20" y="290" width="95" height="50" as="geometry" />
        </mxCell>
        <mxCell id="Awra2Gltxtuhl-s47uvy-31" value="&lt;u&gt;date&lt;/u&gt;" style="ellipse;whiteSpace=wrap;html=1;" vertex="1" parent="1">
          <mxGeometry x="-100" y="290" width="95" height="50" as="geometry" />
        </mxCell>
        <mxCell id="Awra2Gltxtuhl-s47uvy-46" style="edgeStyle=orthogonalEdgeStyle;rounded=0;orthogonalLoop=1;jettySize=auto;html=1;exitX=0.5;exitY=0;exitDx=0;exitDy=0;entryX=0.25;entryY=1;entryDx=0;entryDy=0;endArrow=none;startFill=0;" edge="1" parent="1" source="Awra2Gltxtuhl-s47uvy-32" target="Awra2Gltxtuhl-s47uvy-4">
          <mxGeometry relative="1" as="geometry" />
        </mxCell>
        <mxCell id="Awra2Gltxtuhl-s47uvy-32" value="max_seats" style="ellipse;whiteSpace=wrap;html=1;" vertex="1" parent="1">
          <mxGeometry x="115" y="590" width="95" height="50" as="geometry" />
        </mxCell>
        <mxCell id="Awra2Gltxtuhl-s47uvy-49" style="edgeStyle=orthogonalEdgeStyle;rounded=0;orthogonalLoop=1;jettySize=auto;html=1;exitX=0.5;exitY=0;exitDx=0;exitDy=0;entryX=0;entryY=0.75;entryDx=0;entryDy=0;endArrow=none;startFill=0;" edge="1" parent="1" source="Awra2Gltxtuhl-s47uvy-33" target="Awra2Gltxtuhl-s47uvy-4">
          <mxGeometry relative="1" as="geometry">
            <Array as="points">
              <mxPoint x="78" y="530" />
            </Array>
          </mxGeometry>
        </mxCell>
        <mxCell id="Awra2Gltxtuhl-s47uvy-33" value="company" style="ellipse;whiteSpace=wrap;html=1;" vertex="1" parent="1">
          <mxGeometry x="30" y="560" width="95" height="50" as="geometry" />
        </mxCell>
        <mxCell id="Awra2Gltxtuhl-s47uvy-44" style="edgeStyle=orthogonalEdgeStyle;rounded=0;orthogonalLoop=1;jettySize=auto;html=1;exitX=1;exitY=0.5;exitDx=0;exitDy=0;entryX=0;entryY=0.5;entryDx=0;entryDy=0;endArrow=none;startFill=0;" edge="1" parent="1" source="Awra2Gltxtuhl-s47uvy-34" target="Awra2Gltxtuhl-s47uvy-4">
          <mxGeometry relative="1" as="geometry" />
        </mxCell>
        <mxCell id="Awra2Gltxtuhl-s47uvy-34" value="&lt;u&gt;type_name&lt;/u&gt;" style="ellipse;whiteSpace=wrap;html=1;" vertex="1" parent="1">
          <mxGeometry x="-30" y="500" width="95" height="50" as="geometry" />
        </mxCell>
        <mxCell id="Awra2Gltxtuhl-s47uvy-35" style="edgeStyle=orthogonalEdgeStyle;rounded=0;orthogonalLoop=1;jettySize=auto;html=1;exitX=0.5;exitY=1;exitDx=0;exitDy=0;entryX=0.308;entryY=-0.033;entryDx=0;entryDy=0;entryPerimeter=0;endArrow=none;startFill=0;" edge="1" parent="1" source="Awra2Gltxtuhl-s47uvy-30" target="Awra2Gltxtuhl-s47uvy-7">
          <mxGeometry relative="1" as="geometry" />
        </mxCell>
        <mxCell id="Awra2Gltxtuhl-s47uvy-36" style="edgeStyle=orthogonalEdgeStyle;rounded=0;orthogonalLoop=1;jettySize=auto;html=1;exitX=1;exitY=1;exitDx=0;exitDy=0;entryX=0.167;entryY=-0.017;entryDx=0;entryDy=0;entryPerimeter=0;endArrow=none;startFill=0;" edge="1" parent="1" source="Awra2Gltxtuhl-s47uvy-31" target="Awra2Gltxtuhl-s47uvy-7">
          <mxGeometry relative="1" as="geometry">
            <Array as="points">
              <mxPoint x="-19" y="350" />
              <mxPoint x="50" y="350" />
            </Array>
          </mxGeometry>
        </mxCell>
        <mxCell id="Awra2Gltxtuhl-s47uvy-54" style="edgeStyle=orthogonalEdgeStyle;rounded=0;orthogonalLoop=1;jettySize=auto;html=1;exitX=0.5;exitY=0;exitDx=0;exitDy=0;entryX=0.75;entryY=1;entryDx=0;entryDy=0;endArrow=none;startFill=0;" edge="1" parent="1" source="Awra2Gltxtuhl-s47uvy-50" target="Awra2Gltxtuhl-s47uvy-2">
          <mxGeometry relative="1" as="geometry" />
        </mxCell>
        <mxCell id="Awra2Gltxtuhl-s47uvy-50" value="total_seats" style="ellipse;whiteSpace=wrap;html=1;" vertex="1" parent="1">
          <mxGeometry x="460" y="580" width="95" height="50" as="geometry" />
        </mxCell>
        <mxCell id="Awra2Gltxtuhl-s47uvy-52" style="edgeStyle=orthogonalEdgeStyle;rounded=0;orthogonalLoop=1;jettySize=auto;html=1;exitX=0.5;exitY=0;exitDx=0;exitDy=0;entryX=0.25;entryY=1;entryDx=0;entryDy=0;endArrow=none;startFill=0;" edge="1" parent="1" source="Awra2Gltxtuhl-s47uvy-51" target="Awra2Gltxtuhl-s47uvy-2">
          <mxGeometry relative="1" as="geometry" />
        </mxCell>
        <mxCell id="Awra2Gltxtuhl-s47uvy-51" value="airplane_id" style="ellipse;whiteSpace=wrap;html=1;fontStyle=4" vertex="1" parent="1">
          <mxGeometry x="355" y="580" width="95" height="50" as="geometry" />
        </mxCell>
        <mxCell id="Awra2Gltxtuhl-s47uvy-64" style="edgeStyle=orthogonalEdgeStyle;rounded=0;orthogonalLoop=1;jettySize=auto;html=1;exitX=0;exitY=0;exitDx=0;exitDy=0;entryX=1;entryY=0.75;entryDx=0;entryDy=0;endArrow=none;startFill=0;" edge="1" parent="1" source="Awra2Gltxtuhl-s47uvy-55" target="Awra2Gltxtuhl-s47uvy-6">
          <mxGeometry relative="1" as="geometry">
            <Array as="points">
              <mxPoint x="710" y="507" />
              <mxPoint x="710" y="470" />
            </Array>
          </mxGeometry>
        </mxCell>
        <mxCell id="Awra2Gltxtuhl-s47uvy-55" value="customer_name" style="ellipse;whiteSpace=wrap;html=1;" vertex="1" parent="1">
          <mxGeometry x="710" y="500" width="95" height="50" as="geometry" />
        </mxCell>
        <mxCell id="Awra2Gltxtuhl-s47uvy-66" style="edgeStyle=orthogonalEdgeStyle;rounded=0;orthogonalLoop=1;jettySize=auto;html=1;exitX=0.5;exitY=0;exitDx=0;exitDy=0;entryX=0.75;entryY=1;entryDx=0;entryDy=0;endArrow=none;startFill=0;" edge="1" parent="1" source="Awra2Gltxtuhl-s47uvy-56" target="Awra2Gltxtuhl-s47uvy-6">
          <mxGeometry relative="1" as="geometry">
            <Array as="points">
              <mxPoint x="653" y="510" />
              <mxPoint x="660" y="510" />
            </Array>
          </mxGeometry>
        </mxCell>
        <mxCell id="Awra2Gltxtuhl-s47uvy-56" value="&lt;u&gt;RESERVATION_id&lt;/u&gt;" style="ellipse;whiteSpace=wrap;html=1;" vertex="1" parent="1">
          <mxGeometry x="595" y="520" width="115" height="50" as="geometry" />
        </mxCell>
        <mxCell id="Awra2Gltxtuhl-s47uvy-63" style="edgeStyle=orthogonalEdgeStyle;rounded=0;orthogonalLoop=1;jettySize=auto;html=1;exitX=0;exitY=0.5;exitDx=0;exitDy=0;entryX=1;entryY=0.25;entryDx=0;entryDy=0;endArrow=none;startFill=0;" edge="1" parent="1" source="Awra2Gltxtuhl-s47uvy-57" target="Awra2Gltxtuhl-s47uvy-6">
          <mxGeometry relative="1" as="geometry" />
        </mxCell>
        <mxCell id="Awra2Gltxtuhl-s47uvy-57" value="phone" style="ellipse;whiteSpace=wrap;html=1;" vertex="1" parent="1">
          <mxGeometry x="730" y="435" width="95" height="50" as="geometry" />
        </mxCell>
        <mxCell id="Awra2Gltxtuhl-s47uvy-61" style="edgeStyle=orthogonalEdgeStyle;rounded=0;orthogonalLoop=1;jettySize=auto;html=1;exitX=0;exitY=0.5;exitDx=0;exitDy=0;entryX=0.75;entryY=0;entryDx=0;entryDy=0;endArrow=none;startFill=0;" edge="1" parent="1" source="Awra2Gltxtuhl-s47uvy-60" target="Awra2Gltxtuhl-s47uvy-6">
          <mxGeometry relative="1" as="geometry" />
        </mxCell>
        <mxCell id="Awra2Gltxtuhl-s47uvy-60" value="seat_number" style="ellipse;whiteSpace=wrap;html=1;" vertex="1" parent="1">
          <mxGeometry x="700" y="380" width="95" height="50" as="geometry" />
        </mxCell>
        <mxCell id="Awra2Gltxtuhl-s47uvy-67" value="&lt;u&gt;flight_no&lt;/u&gt;" style="ellipse;whiteSpace=wrap;html=1;" vertex="1" parent="1">
          <mxGeometry x="660" y="300" width="95" height="50" as="geometry" />
        </mxCell>
        <mxCell id="Awra2Gltxtuhl-s47uvy-68" value="airline" style="ellipse;whiteSpace=wrap;html=1;" vertex="1" parent="1">
          <mxGeometry x="740" y="240" width="95" height="50" as="geometry" />
        </mxCell>
        <mxCell id="Awra2Gltxtuhl-s47uvy-69" value="weekdays" style="ellipse;whiteSpace=wrap;html=1;" vertex="1" parent="1">
          <mxGeometry x="720" y="180" width="95" height="50" as="geometry" />
        </mxCell>
        <mxCell id="Awra2Gltxtuhl-s47uvy-70" value="restrictions" style="ellipse;whiteSpace=wrap;html=1;" vertex="1" parent="1">
          <mxGeometry x="670" y="130" width="95" height="50" as="geometry" />
        </mxCell>
        <mxCell id="Awra2Gltxtuhl-s47uvy-80" style="edgeStyle=orthogonalEdgeStyle;rounded=0;orthogonalLoop=1;jettySize=auto;html=1;exitX=1;exitY=0;exitDx=0;exitDy=0;entryX=0;entryY=1;entryDx=0;entryDy=0;" edge="1" parent="1" source="Awra2Gltxtuhl-s47uvy-72" target="Awra2Gltxtuhl-s47uvy-78">
          <mxGeometry relative="1" as="geometry">
            <Array as="points">
              <mxPoint x="640" y="130" />
              <mxPoint x="694" y="130" />
            </Array>
          </mxGeometry>
        </mxCell>
        <mxCell id="Awra2Gltxtuhl-s47uvy-81" style="edgeStyle=orthogonalEdgeStyle;rounded=0;orthogonalLoop=1;jettySize=auto;html=1;exitX=0.5;exitY=0;exitDx=0;exitDy=0;entryX=0.5;entryY=1;entryDx=0;entryDy=0;" edge="1" parent="1" source="Awra2Gltxtuhl-s47uvy-72" target="Awra2Gltxtuhl-s47uvy-79">
          <mxGeometry relative="1" as="geometry" />
        </mxCell>
        <mxCell id="Awra2Gltxtuhl-s47uvy-72" value="FARE" style="ellipse;shape=doubleEllipse;margin=3;whiteSpace=wrap;html=1;align=center;" vertex="1" parent="1">
          <mxGeometry x="555" y="130" width="100" height="50" as="geometry" />
        </mxCell>
        <mxCell id="Awra2Gltxtuhl-s47uvy-78" value="amount" style="ellipse;whiteSpace=wrap;html=1;" vertex="1" parent="1">
          <mxGeometry x="680" y="70" width="95" height="50" as="geometry" />
        </mxCell>
        <mxCell id="Awra2Gltxtuhl-s47uvy-79" value="fare_code" style="ellipse;whiteSpace=wrap;html=1;" vertex="1" parent="1">
          <mxGeometry x="592.5" y="40" width="95" height="50" as="geometry" />
        </mxCell>
        <mxCell id="Awra2Gltxtuhl-s47uvy-83" style="edgeStyle=orthogonalEdgeStyle;rounded=0;orthogonalLoop=1;jettySize=auto;html=1;entryX=0;entryY=0.5;entryDx=0;entryDy=0;endArrow=none;startFill=0;fillColor=#f8cecc;strokeColor=#b85450;" edge="1" parent="1" source="Awra2Gltxtuhl-s47uvy-82" target="Awra2Gltxtuhl-s47uvy-1">
          <mxGeometry relative="1" as="geometry" />
        </mxCell>
        <mxCell id="Awra2Gltxtuhl-s47uvy-107" value="1" style="edgeLabel;html=1;align=center;verticalAlign=middle;resizable=0;points=[];" vertex="1" connectable="0" parent="Awra2Gltxtuhl-s47uvy-83">
          <mxGeometry x="0.0941" y="-1" relative="1" as="geometry">
            <mxPoint x="1" as="offset" />
          </mxGeometry>
        </mxCell>
        <mxCell id="Awra2Gltxtuhl-s47uvy-84" style="edgeStyle=orthogonalEdgeStyle;rounded=0;orthogonalLoop=1;jettySize=auto;html=1;exitX=0;exitY=0.5;exitDx=0;exitDy=0;entryX=1;entryY=0.5;entryDx=0;entryDy=0;endArrow=none;startFill=0;fillColor=#f8cecc;strokeColor=#b85450;shape=link;" edge="1" parent="1" source="Awra2Gltxtuhl-s47uvy-82" target="Awra2Gltxtuhl-s47uvy-3">
          <mxGeometry relative="1" as="geometry">
            <Array as="points">
              <mxPoint x="220" y="160" />
              <mxPoint x="220" y="220" />
            </Array>
          </mxGeometry>
        </mxCell>
        <mxCell id="Awra2Gltxtuhl-s47uvy-108" value="N" style="edgeLabel;html=1;align=center;verticalAlign=middle;resizable=0;points=[];" vertex="1" connectable="0" parent="Awra2Gltxtuhl-s47uvy-84">
          <mxGeometry x="0.0353" y="2" relative="1" as="geometry">
            <mxPoint as="offset" />
          </mxGeometry>
        </mxCell>
        <mxCell id="Awra2Gltxtuhl-s47uvy-82" value="arrival" style="shape=rhombus;perimeter=rhombusPerimeter;whiteSpace=wrap;html=1;align=center;fillColor=#f8cecc;strokeColor=#b85450;" vertex="1" parent="1">
          <mxGeometry x="235" y="130" width="85" height="60" as="geometry" />
        </mxCell>
        <mxCell id="Awra2Gltxtuhl-s47uvy-86" style="edgeStyle=orthogonalEdgeStyle;rounded=0;orthogonalLoop=1;jettySize=auto;html=1;entryX=0;entryY=1;entryDx=0;entryDy=0;endArrow=none;startFill=0;fillColor=#d5e8d4;strokeColor=#82b366;" edge="1" parent="1" source="Awra2Gltxtuhl-s47uvy-85" target="Awra2Gltxtuhl-s47uvy-1">
          <mxGeometry relative="1" as="geometry" />
        </mxCell>
        <mxCell id="Awra2Gltxtuhl-s47uvy-119" value="M" style="edgeLabel;html=1;align=center;verticalAlign=middle;resizable=0;points=[];" vertex="1" connectable="0" parent="Awra2Gltxtuhl-s47uvy-86">
          <mxGeometry x="0.697" y="1" relative="1" as="geometry">
            <mxPoint as="offset" />
          </mxGeometry>
        </mxCell>
        <mxCell id="Awra2Gltxtuhl-s47uvy-87" style="edgeStyle=orthogonalEdgeStyle;rounded=0;orthogonalLoop=1;jettySize=auto;html=1;exitX=0;exitY=0.5;exitDx=0;exitDy=0;entryX=0.5;entryY=0;entryDx=0;entryDy=0;endArrow=none;startFill=0;fillColor=#d5e8d4;strokeColor=#82b366;" edge="1" parent="1" source="Awra2Gltxtuhl-s47uvy-85" target="Awra2Gltxtuhl-s47uvy-4">
          <mxGeometry relative="1" as="geometry" />
        </mxCell>
        <mxCell id="Awra2Gltxtuhl-s47uvy-118" value="M" style="edgeLabel;html=1;align=center;verticalAlign=middle;resizable=0;points=[];" vertex="1" connectable="0" parent="Awra2Gltxtuhl-s47uvy-87">
          <mxGeometry x="-0.1304" y="-1" relative="1" as="geometry">
            <mxPoint as="offset" />
          </mxGeometry>
        </mxCell>
        <mxCell id="Awra2Gltxtuhl-s47uvy-85" value=" allow landing" style="shape=rhombus;perimeter=rhombusPerimeter;whiteSpace=wrap;html=1;align=center;fillColor=#d5e8d4;strokeColor=#82b366;" vertex="1" parent="1">
          <mxGeometry x="260" y="425" width="80" height="60" as="geometry" />
        </mxCell>
        <mxCell id="Awra2Gltxtuhl-s47uvy-90" style="edgeStyle=orthogonalEdgeStyle;rounded=0;orthogonalLoop=1;jettySize=auto;html=1;exitX=0.5;exitY=1;exitDx=0;exitDy=0;entryX=0.25;entryY=0;entryDx=0;entryDy=0;endArrow=none;startFill=0;fillColor=#dae8fc;strokeColor=#6c8ebf;" edge="1" parent="1" source="Awra2Gltxtuhl-s47uvy-88" target="Awra2Gltxtuhl-s47uvy-2">
          <mxGeometry relative="1" as="geometry">
            <Array as="points">
              <mxPoint x="440" y="470" />
              <mxPoint x="440" y="470" />
            </Array>
          </mxGeometry>
        </mxCell>
        <mxCell id="Awra2Gltxtuhl-s47uvy-114" value="1" style="edgeLabel;html=1;align=center;verticalAlign=middle;resizable=0;points=[];" vertex="1" connectable="0" parent="Awra2Gltxtuhl-s47uvy-90">
          <mxGeometry x="-0.0667" y="1" relative="1" as="geometry">
            <mxPoint as="offset" />
          </mxGeometry>
        </mxCell>
        <mxCell id="Awra2Gltxtuhl-s47uvy-93" style="edgeStyle=orthogonalEdgeStyle;rounded=0;orthogonalLoop=1;jettySize=auto;html=1;exitX=0;exitY=0.5;exitDx=0;exitDy=0;entryX=1;entryY=0.5;entryDx=0;entryDy=0;fillColor=#dae8fc;strokeColor=#6c8ebf;endArrow=none;startFill=0;shape=link;" edge="1" parent="1" source="Awra2Gltxtuhl-s47uvy-88" target="Awra2Gltxtuhl-s47uvy-7">
          <mxGeometry relative="1" as="geometry" />
        </mxCell>
        <mxCell id="Awra2Gltxtuhl-s47uvy-113" value="M" style="edgeLabel;html=1;align=center;verticalAlign=middle;resizable=0;points=[];" vertex="1" connectable="0" parent="Awra2Gltxtuhl-s47uvy-93">
          <mxGeometry x="0.2" y="-1" relative="1" as="geometry">
            <mxPoint as="offset" />
          </mxGeometry>
        </mxCell>
        <mxCell id="Awra2Gltxtuhl-s47uvy-88" value=" assigned" style="shape=rhombus;perimeter=rhombusPerimeter;whiteSpace=wrap;html=1;align=center;fillColor=#dae8fc;strokeColor=#6c8ebf;" vertex="1" parent="1">
          <mxGeometry x="395" y="365" width="90" height="70" as="geometry" />
        </mxCell>
        <mxCell id="Awra2Gltxtuhl-s47uvy-94" style="edgeStyle=orthogonalEdgeStyle;rounded=0;orthogonalLoop=1;jettySize=auto;html=1;entryX=0.75;entryY=0;entryDx=0;entryDy=0;endArrow=none;startFill=0;fillColor=#ffe6cc;strokeColor=#d79b00;" edge="1" parent="1" source="Awra2Gltxtuhl-s47uvy-92" target="Awra2Gltxtuhl-s47uvy-7">
          <mxGeometry relative="1" as="geometry" />
        </mxCell>
        <mxCell id="Awra2Gltxtuhl-s47uvy-120" value="1" style="edgeLabel;html=1;align=center;verticalAlign=middle;resizable=0;points=[];" vertex="1" connectable="0" parent="Awra2Gltxtuhl-s47uvy-94">
          <mxGeometry x="-0.0817" y="-3" relative="1" as="geometry">
            <mxPoint as="offset" />
          </mxGeometry>
        </mxCell>
        <mxCell id="Awra2Gltxtuhl-s47uvy-95" style="edgeStyle=orthogonalEdgeStyle;rounded=0;orthogonalLoop=1;jettySize=auto;html=1;entryX=0;entryY=0.5;entryDx=0;entryDy=0;endArrow=none;startFill=0;fillColor=#ffe6cc;strokeColor=#d79b00;shape=link;" edge="1" parent="1" source="Awra2Gltxtuhl-s47uvy-92" target="Awra2Gltxtuhl-s47uvy-6">
          <mxGeometry relative="1" as="geometry">
            <Array as="points">
              <mxPoint x="505" y="455" />
            </Array>
          </mxGeometry>
        </mxCell>
        <mxCell id="Awra2Gltxtuhl-s47uvy-121" value="M" style="edgeLabel;html=1;align=center;verticalAlign=middle;resizable=0;points=[];" vertex="1" connectable="0" parent="Awra2Gltxtuhl-s47uvy-95">
          <mxGeometry x="0.6286" y="-1" relative="1" as="geometry">
            <mxPoint as="offset" />
          </mxGeometry>
        </mxCell>
        <mxCell id="Awra2Gltxtuhl-s47uvy-92" value=" linked to" style="shape=rhombus;perimeter=rhombusPerimeter;whiteSpace=wrap;html=1;align=center;fillColor=#ffe6cc;strokeColor=#d79b00;" vertex="1" parent="1">
          <mxGeometry x="455" y="320" width="100" height="60" as="geometry" />
        </mxCell>
        <mxCell id="Awra2Gltxtuhl-s47uvy-100" style="edgeStyle=orthogonalEdgeStyle;rounded=0;orthogonalLoop=1;jettySize=auto;html=1;exitX=1;exitY=0.5;exitDx=0;exitDy=0;entryX=0;entryY=0.5;entryDx=0;entryDy=0;fillColor=#e1d5e7;strokeColor=#9673a6;endArrow=none;startFill=0;shape=link;" edge="1" parent="1" source="Awra2Gltxtuhl-s47uvy-96" target="Awra2Gltxtuhl-s47uvy-2">
          <mxGeometry relative="1" as="geometry" />
        </mxCell>
        <mxCell id="Awra2Gltxtuhl-s47uvy-115" value="M" style="edgeLabel;html=1;align=center;verticalAlign=middle;resizable=0;points=[];" vertex="1" connectable="0" parent="Awra2Gltxtuhl-s47uvy-100">
          <mxGeometry y="-1" relative="1" as="geometry">
            <mxPoint as="offset" />
          </mxGeometry>
        </mxCell>
        <mxCell id="Awra2Gltxtuhl-s47uvy-96" value="Belongs to" style="shape=rhombus;perimeter=rhombusPerimeter;whiteSpace=wrap;html=1;align=center;fillColor=#e1d5e7;strokeColor=#9673a6;" vertex="1" parent="1">
          <mxGeometry x="280" y="500" width="100" height="50" as="geometry" />
        </mxCell>
        <mxCell id="Awra2Gltxtuhl-s47uvy-102" style="edgeStyle=orthogonalEdgeStyle;rounded=0;orthogonalLoop=1;jettySize=auto;html=1;entryX=0;entryY=0.25;entryDx=0;entryDy=0;endArrow=none;startFill=0;fillColor=#1ba1e2;strokeColor=#006EAF;shape=link;" edge="1" parent="1" source="Awra2Gltxtuhl-s47uvy-101" target="Awra2Gltxtuhl-s47uvy-5">
          <mxGeometry relative="1" as="geometry" />
        </mxCell>
        <mxCell id="Awra2Gltxtuhl-s47uvy-109" value="1" style="edgeLabel;html=1;align=center;verticalAlign=middle;resizable=0;points=[];" vertex="1" connectable="0" parent="Awra2Gltxtuhl-s47uvy-102">
          <mxGeometry x="0.1059" y="2" relative="1" as="geometry">
            <mxPoint as="offset" />
          </mxGeometry>
        </mxCell>
        <mxCell id="Awra2Gltxtuhl-s47uvy-103" style="edgeStyle=orthogonalEdgeStyle;rounded=0;orthogonalLoop=1;jettySize=auto;html=1;entryX=1;entryY=0.75;entryDx=0;entryDy=0;endArrow=none;startFill=0;fillColor=#1ba1e2;strokeColor=#006EAF;" edge="1" parent="1" source="Awra2Gltxtuhl-s47uvy-101" target="Awra2Gltxtuhl-s47uvy-3">
          <mxGeometry relative="1" as="geometry" />
        </mxCell>
        <mxCell id="Awra2Gltxtuhl-s47uvy-110" value="M" style="edgeLabel;html=1;align=center;verticalAlign=middle;resizable=0;points=[];" vertex="1" connectable="0" parent="Awra2Gltxtuhl-s47uvy-103">
          <mxGeometry x="0.3436" y="-1" relative="1" as="geometry">
            <mxPoint as="offset" />
          </mxGeometry>
        </mxCell>
        <mxCell id="Awra2Gltxtuhl-s47uvy-101" value="Has" style="shape=rhombus;perimeter=rhombusPerimeter;whiteSpace=wrap;html=1;align=center;fillColor=#1ba1e2;fontColor=#ffffff;strokeColor=#006EAF;" vertex="1" parent="1">
          <mxGeometry x="405" y="210" width="90" height="50" as="geometry" />
        </mxCell>
        <mxCell id="Awra2Gltxtuhl-s47uvy-106" style="edgeStyle=orthogonalEdgeStyle;rounded=0;orthogonalLoop=1;jettySize=auto;html=1;exitX=0.5;exitY=1;exitDx=0;exitDy=0;entryX=1;entryY=0.25;entryDx=0;entryDy=0;endArrow=none;startFill=0;fillColor=#647687;strokeColor=#314354;shape=link;" edge="1" parent="1" source="Awra2Gltxtuhl-s47uvy-104" target="Awra2Gltxtuhl-s47uvy-7">
          <mxGeometry relative="1" as="geometry" />
        </mxCell>
        <mxCell id="Awra2Gltxtuhl-s47uvy-112" value="M" style="edgeLabel;html=1;align=center;verticalAlign=middle;resizable=0;points=[];" vertex="1" connectable="0" parent="Awra2Gltxtuhl-s47uvy-106">
          <mxGeometry x="-0.1778" y="1" relative="1" as="geometry">
            <mxPoint as="offset" />
          </mxGeometry>
        </mxCell>
        <mxCell id="Awra2Gltxtuhl-s47uvy-104" value="Has" style="shape=rhombus;perimeter=rhombusPerimeter;whiteSpace=wrap;html=1;align=center;fillColor=#647687;fontColor=#ffffff;strokeColor=#314354;" vertex="1" parent="1">
          <mxGeometry x="140" y="280" width="90" height="50" as="geometry" />
        </mxCell>
      </root>
    </mxGraphModel>
  </diagram>
</mxfile>
